# xmcd
#
# Track frame offsets: 
#        150
#        18122
#        29400
#        42012
#        60755
#        74725
#        91437
#        102900
#        119829
#        140155
#        155090
#        184860
#        206662
#
# Disc length: 2990 seconds
#
# Revision: 0
# Processed by: cddbd v1.5.1PL2 Copyright (c) Steve Scherf et al.
# Submitted via: ExactAudioCopy v0.95b3
#
DISCID=bc0bac0d
DTITLE=CALEXICO - Garden Ruin
DYEAR=2006
DGENRE=Country
TTITLE0=Cruel
TTITLE1=Yours and Mine
TTITLE2=Bisbee Blue
TTITLE3=Panic Open String
TTITLE4=Letter to Bowie Knife
TTITLE5=Roka
TTITLE6=Lucky Dime
TTITLE7=Smash
TTITLE8=Deep Down
TTITLE9=Nom De Plume
TTITLE10=All Systems Red
TTITLE11=Deep Down (acoustic)
TTITLE12=Nom de Plume (alternate)
EXTD=
EXTT0=
EXTT1=
EXTT2=
EXTT3=
EXTT4=
EXTT5=
EXTT6=
EXTT7=
EXTT8=
EXTT9=
EXTT10=
EXTT11=
EXTT12=
PLAYORDER=
